G04 #@! TF.GenerationSoftware,KiCad,Pcbnew,(5.0.0)*
G04 #@! TF.CreationDate,2018-11-14T19:12:12+05:30*
G04 #@! TF.ProjectId,OPSUnit,4F5053556E69742E6B696361645F7063,rev?*
G04 #@! TF.SameCoordinates,Original*
G04 #@! TF.FileFunction,Copper,L1,Top,Signal*
G04 #@! TF.FilePolarity,Positive*
%FSLAX46Y46*%
G04 Gerber Fmt 4.6, Leading zero omitted, Abs format (unit mm)*
G04 Created by KiCad (PCBNEW (5.0.0)) date 11/14/18 19:12:12*
%MOMM*%
%LPD*%
G01*
G04 APERTURE LIST*
G04 #@! TA.AperFunction,ComponentPad*
%ADD10C,1.400000*%
G04 #@! TD*
G04 #@! TA.AperFunction,ComponentPad*
%ADD11O,1.400000X1.400000*%
G04 #@! TD*
G04 #@! TA.AperFunction,ComponentPad*
%ADD12R,0.850000X0.850000*%
G04 #@! TD*
G04 #@! TA.AperFunction,ComponentPad*
%ADD13O,0.850000X0.850000*%
G04 #@! TD*
G04 #@! TA.AperFunction,ComponentPad*
%ADD14O,1.500000X1.050000*%
G04 #@! TD*
G04 #@! TA.AperFunction,ComponentPad*
%ADD15R,1.500000X1.050000*%
G04 #@! TD*
G04 #@! TA.AperFunction,ViaPad*
%ADD16C,2.500000*%
G04 #@! TD*
G04 #@! TA.AperFunction,Conductor*
%ADD17C,0.250000*%
G04 #@! TD*
G04 APERTURE END LIST*
D10*
G04 #@! TO.P,R2,1*
G04 #@! TO.N,Net-(J2-Pad2)*
X150924000Y-116500000D03*
D11*
G04 #@! TO.P,R2,2*
G04 #@! TO.N,Net-(Q1-Pad1)*
X150924000Y-121580000D03*
G04 #@! TD*
D12*
G04 #@! TO.P,J1,1*
G04 #@! TO.N,Net-(J1-Pad1)*
X147368000Y-113706000D03*
D13*
G04 #@! TO.P,J1,2*
G04 #@! TO.N,Net-(J1-Pad2)*
X146368000Y-113706000D03*
G04 #@! TD*
G04 #@! TO.P,J2,2*
G04 #@! TO.N,Net-(J2-Pad2)*
X150432000Y-113706000D03*
D12*
G04 #@! TO.P,J2,1*
G04 #@! TO.N,GND*
X151432000Y-113706000D03*
G04 #@! TD*
G04 #@! TO.P,J3,1*
G04 #@! TO.N,Net-(J3-Pad1)*
X155226000Y-113706000D03*
D13*
G04 #@! TO.P,J3,2*
G04 #@! TO.N,Net-(J3-Pad2)*
X154226000Y-113706000D03*
G04 #@! TD*
D14*
G04 #@! TO.P,Q1,2*
G04 #@! TO.N,Net-(J1-Pad2)*
X147368000Y-126152000D03*
G04 #@! TO.P,Q1,3*
G04 #@! TO.N,Net-(Q1-Pad3)*
X147368000Y-127422000D03*
D15*
G04 #@! TO.P,Q1,1*
G04 #@! TO.N,Net-(Q1-Pad1)*
X147368000Y-124882000D03*
G04 #@! TD*
G04 #@! TO.P,Q2,1*
G04 #@! TO.N,Net-(J3-Pad1)*
X153972000Y-124882000D03*
D14*
G04 #@! TO.P,Q2,3*
G04 #@! TO.N,GND*
X153972000Y-127422000D03*
G04 #@! TO.P,Q2,2*
G04 #@! TO.N,Net-(Q1-Pad3)*
X153972000Y-126152000D03*
G04 #@! TD*
D10*
G04 #@! TO.P,R1,1*
G04 #@! TO.N,Net-(J2-Pad2)*
X147622000Y-121580000D03*
D11*
G04 #@! TO.P,R1,2*
G04 #@! TO.N,Net-(J1-Pad1)*
X147622000Y-116500000D03*
G04 #@! TD*
G04 #@! TO.P,R3,2*
G04 #@! TO.N,Net-(J3-Pad2)*
X154226000Y-116500000D03*
D10*
G04 #@! TO.P,R3,1*
G04 #@! TO.N,Net-(J2-Pad2)*
X154226000Y-121580000D03*
G04 #@! TD*
D16*
G04 #@! TO.N,*
X144320000Y-112690000D03*
X157000000Y-129000000D03*
G04 #@! TD*
D17*
G04 #@! TO.N,Net-(J1-Pad1)*
X147368000Y-116246000D02*
X147622000Y-116500000D01*
X147368000Y-113706000D02*
X147368000Y-116246000D01*
G04 #@! TO.N,GND*
X151432000Y-113031000D02*
X152281000Y-112182000D01*
X151432000Y-113706000D02*
X151432000Y-113031000D01*
X155137002Y-112182000D02*
X156766000Y-113810998D01*
X152281000Y-112182000D02*
X155137002Y-112182000D01*
X154197000Y-127422000D02*
X153972000Y-127422000D01*
X156766000Y-124853000D02*
X154197000Y-127422000D01*
X156766000Y-113810998D02*
X156766000Y-124853000D01*
G04 #@! TO.N,Net-(J3-Pad1)*
X154197000Y-124882000D02*
X153972000Y-124882000D01*
X155226000Y-114381000D02*
X155750000Y-114905000D01*
X155226000Y-113706000D02*
X155226000Y-114381000D01*
X155750000Y-114905000D02*
X155750000Y-122329000D01*
X153972000Y-124107000D02*
X153972000Y-124882000D01*
X155750000Y-122329000D02*
X153972000Y-124107000D01*
G04 #@! TO.N,Net-(J3-Pad2)*
X154226000Y-116500000D02*
X154226000Y-113706000D01*
G04 #@! TO.N,Net-(Q1-Pad3)*
X147368000Y-127422000D02*
X149146000Y-127422000D01*
X150416000Y-126152000D02*
X153972000Y-126152000D01*
X149146000Y-127422000D02*
X150416000Y-126152000D01*
G04 #@! TO.N,Net-(Q1-Pad1)*
X150924000Y-122850000D02*
X150924000Y-121580000D01*
X147368000Y-124882000D02*
X148892000Y-124882000D01*
X148892000Y-124882000D02*
X150924000Y-122850000D01*
G04 #@! TO.N,Net-(J1-Pad2)*
X146368000Y-126152000D02*
X147368000Y-126152000D01*
X145943001Y-125727001D02*
X146368000Y-126152000D01*
X145943001Y-114130999D02*
X145943001Y-125727001D01*
X146368000Y-113706000D02*
X145943001Y-114130999D01*
G04 #@! TO.N,Net-(J2-Pad2)*
X150686000Y-116262000D02*
X150924000Y-116500000D01*
X150924000Y-118278000D02*
X147622000Y-121580000D01*
X150924000Y-118278000D02*
X154226000Y-121580000D01*
X150924000Y-116500000D02*
X150924000Y-118278000D01*
X150432000Y-116008000D02*
X150924000Y-116500000D01*
X150432000Y-113706000D02*
X150432000Y-116008000D01*
G04 #@! TD*
M02*
