G04 #@! TF.GenerationSoftware,KiCad,Pcbnew,(5.0.0)*
G04 #@! TF.CreationDate,2018-11-14T19:12:12+05:30*
G04 #@! TF.ProjectId,OPSUnit,4F5053556E69742E6B696361645F7063,rev?*
G04 #@! TF.SameCoordinates,Original*
G04 #@! TF.FileFunction,Legend,Top*
G04 #@! TF.FilePolarity,Positive*
%FSLAX46Y46*%
G04 Gerber Fmt 4.6, Leading zero omitted, Abs format (unit mm)*
G04 Created by KiCad (PCBNEW (5.0.0)) date 11/14/18 19:12:12*
%MOMM*%
%LPD*%
G01*
G04 APERTURE LIST*
%ADD10C,0.120000*%
%ADD11C,0.150000*%
G04 APERTURE END LIST*
D10*
G04 #@! TO.C,R2*
X151844000Y-117120000D02*
X151844000Y-120960000D01*
X150004000Y-117120000D02*
X150004000Y-120960000D01*
G04 #@! TO.C,J1*
X145808000Y-113011000D02*
X145808000Y-113311507D01*
X145808000Y-114100493D02*
X145808000Y-114401000D01*
X146683000Y-113011000D02*
X145808000Y-113011000D01*
X146683000Y-114401000D02*
X145808000Y-114401000D01*
X146683000Y-113011000D02*
X146683000Y-113097724D01*
X146683000Y-114314276D02*
X146683000Y-114401000D01*
X147368000Y-113011000D02*
X148053000Y-113011000D01*
X148053000Y-113011000D02*
X148053000Y-113706000D01*
G04 #@! TO.C,J2*
X152117000Y-113011000D02*
X152117000Y-113706000D01*
X151432000Y-113011000D02*
X152117000Y-113011000D01*
X150747000Y-114314276D02*
X150747000Y-114401000D01*
X150747000Y-113011000D02*
X150747000Y-113097724D01*
X150747000Y-114401000D02*
X149872000Y-114401000D01*
X150747000Y-113011000D02*
X149872000Y-113011000D01*
X149872000Y-114100493D02*
X149872000Y-114401000D01*
X149872000Y-113011000D02*
X149872000Y-113311507D01*
G04 #@! TO.C,J3*
X153666000Y-113011000D02*
X153666000Y-113311507D01*
X153666000Y-114100493D02*
X153666000Y-114401000D01*
X154541000Y-113011000D02*
X153666000Y-113011000D01*
X154541000Y-114401000D02*
X153666000Y-114401000D01*
X154541000Y-113011000D02*
X154541000Y-113097724D01*
X154541000Y-114314276D02*
X154541000Y-114401000D01*
X155226000Y-113011000D02*
X155911000Y-113011000D01*
X155911000Y-113011000D02*
X155911000Y-113706000D01*
G04 #@! TO.C,Q1*
X145518000Y-124352000D02*
X145518000Y-127952000D01*
X145529522Y-124313522D02*
G75*
G02X149968000Y-126152000I1838478J-1838478D01*
G01*
X145529522Y-127990478D02*
G75*
G03X149968000Y-126152000I1838478J1838478D01*
G01*
G04 #@! TO.C,Q2*
X152133522Y-127990478D02*
G75*
G03X156572000Y-126152000I1838478J1838478D01*
G01*
X152133522Y-124313522D02*
G75*
G02X156572000Y-126152000I1838478J-1838478D01*
G01*
X152122000Y-124352000D02*
X152122000Y-127952000D01*
G04 #@! TO.C,R1*
X146702000Y-120960000D02*
X146702000Y-117120000D01*
X148542000Y-120960000D02*
X148542000Y-117120000D01*
G04 #@! TO.C,R3*
X155146000Y-120960000D02*
X155146000Y-117120000D01*
X153306000Y-120960000D02*
X153306000Y-117120000D01*
G04 #@! TO.C,R2*
D11*
X153296380Y-119206666D02*
X152820190Y-119540000D01*
X153296380Y-119778095D02*
X152296380Y-119778095D01*
X152296380Y-119397142D01*
X152344000Y-119301904D01*
X152391619Y-119254285D01*
X152486857Y-119206666D01*
X152629714Y-119206666D01*
X152724952Y-119254285D01*
X152772571Y-119301904D01*
X152820190Y-119397142D01*
X152820190Y-119778095D01*
X152391619Y-118825714D02*
X152344000Y-118778095D01*
X152296380Y-118682857D01*
X152296380Y-118444761D01*
X152344000Y-118349523D01*
X152391619Y-118301904D01*
X152486857Y-118254285D01*
X152582095Y-118254285D01*
X152724952Y-118301904D01*
X153296380Y-118873333D01*
X153296380Y-118254285D01*
G04 #@! TO.C,J1*
X148380380Y-114039333D02*
X149094666Y-114039333D01*
X149237523Y-114086952D01*
X149332761Y-114182190D01*
X149380380Y-114325047D01*
X149380380Y-114420285D01*
X149380380Y-113039333D02*
X149380380Y-113610761D01*
X149380380Y-113325047D02*
X148380380Y-113325047D01*
X148523238Y-113420285D01*
X148618476Y-113515523D01*
X148666095Y-113610761D01*
G04 #@! TO.C,J2*
X152444380Y-114039333D02*
X153158666Y-114039333D01*
X153301523Y-114086952D01*
X153396761Y-114182190D01*
X153444380Y-114325047D01*
X153444380Y-114420285D01*
X152539619Y-113610761D02*
X152492000Y-113563142D01*
X152444380Y-113467904D01*
X152444380Y-113229809D01*
X152492000Y-113134571D01*
X152539619Y-113086952D01*
X152634857Y-113039333D01*
X152730095Y-113039333D01*
X152872952Y-113086952D01*
X153444380Y-113658380D01*
X153444380Y-113039333D01*
G04 #@! TO.C,J3*
X156238380Y-114039333D02*
X156952666Y-114039333D01*
X157095523Y-114086952D01*
X157190761Y-114182190D01*
X157238380Y-114325047D01*
X157238380Y-114420285D01*
X156238380Y-113658380D02*
X156238380Y-113039333D01*
X156619333Y-113372666D01*
X156619333Y-113229809D01*
X156666952Y-113134571D01*
X156714571Y-113086952D01*
X156809809Y-113039333D01*
X157047904Y-113039333D01*
X157143142Y-113086952D01*
X157190761Y-113134571D01*
X157238380Y-113229809D01*
X157238380Y-113515523D01*
X157190761Y-113610761D01*
X157143142Y-113658380D01*
G04 #@! TO.C,Q1*
X151475619Y-126247238D02*
X151428000Y-126342476D01*
X151332761Y-126437714D01*
X151189904Y-126580571D01*
X151142285Y-126675809D01*
X151142285Y-126771047D01*
X151380380Y-126723428D02*
X151332761Y-126818666D01*
X151237523Y-126913904D01*
X151047047Y-126961523D01*
X150713714Y-126961523D01*
X150523238Y-126913904D01*
X150428000Y-126818666D01*
X150380380Y-126723428D01*
X150380380Y-126532952D01*
X150428000Y-126437714D01*
X150523238Y-126342476D01*
X150713714Y-126294857D01*
X151047047Y-126294857D01*
X151237523Y-126342476D01*
X151332761Y-126437714D01*
X151380380Y-126532952D01*
X151380380Y-126723428D01*
X151380380Y-125342476D02*
X151380380Y-125913904D01*
X151380380Y-125628190D02*
X150380380Y-125628190D01*
X150523238Y-125723428D01*
X150618476Y-125818666D01*
X150666095Y-125913904D01*
G04 #@! TO.C,Q2*
X158079619Y-126247238D02*
X158032000Y-126342476D01*
X157936761Y-126437714D01*
X157793904Y-126580571D01*
X157746285Y-126675809D01*
X157746285Y-126771047D01*
X157984380Y-126723428D02*
X157936761Y-126818666D01*
X157841523Y-126913904D01*
X157651047Y-126961523D01*
X157317714Y-126961523D01*
X157127238Y-126913904D01*
X157032000Y-126818666D01*
X156984380Y-126723428D01*
X156984380Y-126532952D01*
X157032000Y-126437714D01*
X157127238Y-126342476D01*
X157317714Y-126294857D01*
X157651047Y-126294857D01*
X157841523Y-126342476D01*
X157936761Y-126437714D01*
X157984380Y-126532952D01*
X157984380Y-126723428D01*
X157079619Y-125913904D02*
X157032000Y-125866285D01*
X156984380Y-125771047D01*
X156984380Y-125532952D01*
X157032000Y-125437714D01*
X157079619Y-125390095D01*
X157174857Y-125342476D01*
X157270095Y-125342476D01*
X157412952Y-125390095D01*
X157984380Y-125961523D01*
X157984380Y-125342476D01*
G04 #@! TO.C,R1*
X146154380Y-119206666D02*
X145678190Y-119540000D01*
X146154380Y-119778095D02*
X145154380Y-119778095D01*
X145154380Y-119397142D01*
X145202000Y-119301904D01*
X145249619Y-119254285D01*
X145344857Y-119206666D01*
X145487714Y-119206666D01*
X145582952Y-119254285D01*
X145630571Y-119301904D01*
X145678190Y-119397142D01*
X145678190Y-119778095D01*
X146154380Y-118254285D02*
X146154380Y-118825714D01*
X146154380Y-118540000D02*
X145154380Y-118540000D01*
X145297238Y-118635238D01*
X145392476Y-118730476D01*
X145440095Y-118825714D01*
G04 #@! TO.C,R3*
X152758380Y-119206666D02*
X152282190Y-119540000D01*
X152758380Y-119778095D02*
X151758380Y-119778095D01*
X151758380Y-119397142D01*
X151806000Y-119301904D01*
X151853619Y-119254285D01*
X151948857Y-119206666D01*
X152091714Y-119206666D01*
X152186952Y-119254285D01*
X152234571Y-119301904D01*
X152282190Y-119397142D01*
X152282190Y-119778095D01*
X151758380Y-118873333D02*
X151758380Y-118254285D01*
X152139333Y-118587619D01*
X152139333Y-118444761D01*
X152186952Y-118349523D01*
X152234571Y-118301904D01*
X152329809Y-118254285D01*
X152567904Y-118254285D01*
X152663142Y-118301904D01*
X152710761Y-118349523D01*
X152758380Y-118444761D01*
X152758380Y-118730476D01*
X152710761Y-118825714D01*
X152663142Y-118873333D01*
G04 #@! TD*
M02*
